<svg xmlns="http://www.w3.org/2000/svg" width="1170" height="2532" viewBox="0 0 1170 2532"><rect width="1170" height="2532" fill="#08061a"/><text x="80" y="190" fill="#f0efff" font-family="Arial" font-size="76" font-weight="700">Бинго Битва</text><rect x="70" y="300" width="1030" height="520" rx="52" fill="#241044" stroke="#7c3aed"/><text x="120" y="430" fill="#f0efff" font-family="Arial" font-size="54" font-weight="700">Выберите шоу</text><rect x="120" y="520" width="300" height="140" rx="34" fill="#7c3aed"/><rect x="450" y="520" width="300" height="140" rx="34" fill="#f97316"/><rect x="780" y="520" width="260" height="140" rx="34" fill="#2563ff"/><rect x="70" y="920" width="1030" height="1030" rx="52" fill="#0d0d2b" stroke="#7c3aed"/><g fill="#121744" stroke="#7c3aed" stroke-width="5"><rect x="170" y="1040" width="240" height="240" rx="32"/><rect x="465" y="1040" width="240" height="240" rx="32"/><rect x="760" y="1040" width="240" height="240" rx="32"/><rect x="170" y="1335" width="240" height="240" rx="32"/><rect x="465" y="1335" width="240" height="240" rx="32"/><rect x="760" y="1335" width="240" height="240" rx="32"/><rect x="170" y="1630" width="240" height="240" rx="32"/><rect x="465" y="1630" width="240" height="240" rx="32"/><rect x="760" y="1630" width="240" height="240" rx="32"/></g><path d="M180 1160h810" stroke="#f97316" stroke-width="16" stroke-linecap="round"/></svg>
