<svg xmlns="http://www.w3.org/2000/svg" width="1170" height="2532" viewBox="0 0 1170 2532"><rect width="1170" height="2532" fill="#08061a"/><text x="80" y="190" fill="#f0efff" font-family="Arial" font-size="76" font-weight="700">Карточка</text><rect x="70" y="360" width="1030" height="1030" rx="52" fill="#0d0d2b" stroke="#7c3aed"/><g fill="#121744" stroke="#7c3aed" stroke-width="5"><rect x="170" y="460" width="240" height="240" rx="32"/><rect x="465" y="460" width="240" height="240" rx="32"/><rect x="760" y="460" width="240" height="240" rx="32"/><rect x="170" y="755" width="240" height="240" rx="32"/><rect x="465" y="755" width="240" height="240" rx="32"/><rect x="760" y="755" width="240" height="240" rx="32"/><rect x="170" y="1050" width="240" height="240" rx="32"/><rect x="465" y="1050" width="240" height="240" rx="32"/><rect x="760" y="1050" width="240" height="240" rx="32"/></g><g fill="#f97316"><circle cx="290" cy="580" r="34"/><circle cx="585" cy="875" r="34"/><circle cx="880" cy="1170" r="34"/></g><rect x="140" y="1530" width="890" height="120" rx="36" fill="#7c3aed"/></svg>
